<?xml version="1.0" encoding="UTF-8"?>
<svg xmlns="http://www.w3.org/2000/svg" xmlns:xlink="http://www.w3.org/1999/xlink" width="24px" height="22px" viewBox="0 0 24 22" version="1.1">
<defs>
<filter id="alpha" filterUnits="objectBoundingBox" x="0%" y="0%" width="100%" height="100%">
  <feColorMatrix type="matrix" in="SourceGraphic" values="0 0 0 0 1 0 0 0 0 1 0 0 0 0 1 0 0 0 1 0"/>
</filter>
<mask id="mask0">
  <g filter="url(#alpha)">
<rect x="0" y="0" width="24" height="22" style="fill:rgb(0%,0%,0%);fill-opacity:0.301961;stroke:none;"/>
  </g>
</mask>
<clipPath id="clip1">
  <rect x="0" y="0" width="24" height="22"/>
</clipPath>
<g id="surface5" clip-path="url(#clip1)">
<path style=" stroke:none;fill-rule:nonzero;fill:rgb(26.666668%,26.666668%,26.666668%);fill-opacity:1;" d="M 13.546875 15.609375 L 10.035156 12.867188 L 10.8125 12.867188 Z M 9.84375 6.945312 L 12.609375 9.71875 L 13.546875 9.71875 Z M 9.84375 6.945312 "/>
</g>
</defs>
<g id="surface1">
<path style=" stroke:none;fill-rule:nonzero;fill:rgb(100%,100%,100%);fill-opacity:1;" d="M 6 19.292969 L 1.855469 12.09375 C 1.472656 11.429688 1.472656 10.605469 1.855469 9.941406 L 6 2.75 C 6.382812 2.082031 7.09375 1.667969 7.859375 1.667969 L 16.136719 1.667969 C 16.90625 1.667969 17.617188 2.082031 18 2.75 L 22.144531 9.945312 C 22.527344 10.609375 22.527344 11.429688 22.144531 12.097656 L 18 19.292969 C 17.617188 19.964844 16.90625 20.375 16.140625 20.375 L 7.867188 20.375 C 7.09375 20.371094 6.386719 19.957031 6 19.292969 Z M 6 19.292969 "/>
<path style=" stroke:none;fill-rule:nonzero;fill:rgb(48.627451%,30.19608%,100%);fill-opacity:1;" d="M 6.351562 18.800781 L 2.457031 12.035156 C 2.09375 11.40625 2.09375 10.632812 2.457031 10.007812 L 6.351562 3.238281 C 6.714844 2.609375 7.382812 2.222656 8.105469 2.222656 L 15.894531 2.222656 C 16.617188 2.222656 17.285156 2.609375 17.648438 3.238281 L 21.546875 10.003906 C 21.910156 10.632812 21.910156 11.40625 21.546875 12.03125 L 17.652344 18.804688 C 17.285156 19.433594 16.617188 19.820312 15.894531 19.820312 L 8.109375 19.820312 C 7.382812 19.820312 6.714844 19.429688 6.351562 18.800781 Z M 6.351562 18.800781 "/>
<path style=" stroke:none;fill-rule:nonzero;fill:rgb(96.862745%,96.862745%,96.862745%);fill-opacity:1;" d="M 8.078125 9.71875 L 16.089844 9.71875 C 16.191406 9.71875 16.273438 9.636719 16.273438 9.535156 L 16.273438 8.03125 C 16.273438 7.03125 15.460938 6.21875 14.460938 6.21875 L 9.652344 6.21875 C 8.25 6.214844 7.117188 7.351562 7.117188 8.753906 C 7.117188 9.289062 7.546875 9.71875 8.078125 9.71875 Z M 8.863281 16.371094 L 13.652344 16.371094 C 15.097656 16.371094 16.273438 15.195312 16.273438 13.746094 C 16.273438 13.261719 15.882812 12.867188 15.398438 12.867188 L 7.292969 12.867188 C 7.191406 12.867188 7.117188 12.949219 7.117188 13.042969 L 7.117188 14.617188 C 7.117188 15.585938 7.898438 16.371094 8.863281 16.371094 Z M 8.863281 16.371094 "/>
<path style=" stroke:none;fill-rule:nonzero;fill:rgb(96.862745%,96.862745%,96.862745%);fill-opacity:1;" d="M 7.472656 9.519531 L 13.449219 15.507812 C 13.84375 15.90625 14.484375 15.90625 14.882812 15.507812 L 15.917969 14.46875 C 16.3125 14.074219 16.3125 13.429688 15.917969 13.035156 L 9.941406 7.046875 C 9.546875 6.648438 8.90625 6.648438 8.511719 7.046875 L 7.472656 8.082031 C 7.074219 8.480469 7.074219 9.125 7.472656 9.519531 Z M 7.472656 9.519531 "/>
<use xlink:href="#surface5" mask="url(#mask0)"/>
</g>
</svg>
